<?xml version="1.0" standalone="no"?><!DOCTYPE svg PUBLIC "-//W3C//DTD SVG 1.1//EN" "http://www.w3.org/Graphics/SVG/1.1/DTD/svg11.dtd"><svg t="1560854295175" class="icon" style="" viewBox="0 0 1024 1024" version="1.1" xmlns="http://www.w3.org/2000/svg" p-id="2142" xmlns:xlink="http://www.w3.org/1999/xlink" width="200" height="200"><defs><style type="text/css"></style></defs><path d="M182.84544 146.341888q0 41.140224-36.569088 62.85312l0 723.382272q0 7.428096-5.428224 12.85632t-12.85632 5.428224l-36.569088 0q-7.428096 0-12.85632-5.428224t-5.428224-12.85632l0-723.382272q-36.569088-21.712896-36.569088-62.85312 0-30.283776 21.4272-51.710976t51.710976-21.4272 51.710976 21.4272 21.4272 51.710976zm841.089024 36.569088l0 435.972096q0 14.2848-7.1424 21.998592t-22.569984 15.71328q-122.84928 66.281472-210.843648 66.281472-34.854912 0-70.566912-12.570624t-61.996032-27.426816-65.995776-27.426816-81.42336-12.570624q-109.707264 0-265.125888 83.423232-9.713664 5.142528-18.855936 5.142528-14.856192 0-25.71264-10.856448t-10.856448-25.71264l0-423.972864q0-18.284544 17.713152-31.42656 11.999232-7.999488 45.139968-24.569856 134.848512-68.56704 240.556032-68.56704 61.138944 0 114.2784 16.570368t125.134848 50.282496q21.712896 10.856448 50.282496 10.856448 30.855168 0 67.13856-11.999232t62.85312-26.855424 50.282496-26.855424 31.140864-11.999232q14.856192 0 25.71264 10.856448t10.856448 25.71264z" p-id="2143" fill="#d81e06"></path></svg>